# 3ds Max Wavefront OBJ Exporter v0.99 - (c)2007 guruware
# File Created: 17.03.2024 13:07:36

mtllib Dado_animales.mtl

#
# object Box001
#

v  -14.7956 0.0000 10.6730
v  0.2044 0.0000 -4.3270
v  15.2044 0.0000 10.6730
v  0.2044 0.0000 25.6730
v  0.2044 30.0000 25.6730
v  15.2044 30.0000 10.6730
v  0.2044 30.0000 -4.3270
v  -14.7956 30.0000 10.6730
v  15.2044 15.0000 25.6730
v  -14.7956 15.0000 25.6730
v  15.2044 15.0000 -4.3270
v  -14.7956 15.0000 -4.3270
v  15.2044 0.0000 25.6730
v  15.2044 0.0000 -4.3270
v  -14.7956 0.0000 -4.3270
v  -14.7956 0.0000 25.6730
v  -14.7956 30.0000 -4.3270
v  15.2044 30.0000 -4.3270
v  15.2044 30.0000 25.6730
v  -14.7956 30.0000 25.6730
# 20 vertices

vn -0.7071 -0.7071 -0.0000
vn 0.0000 -0.7071 -0.7071
vn 0.7071 -0.7071 -0.0000
vn 0.0000 -0.7071 0.7071
vn 0.0000 0.7071 0.7071
vn 0.7071 0.7071 -0.0000
vn 0.0000 0.7071 -0.7071
vn -0.7071 0.7071 -0.0000
vn 0.7071 0.0000 0.7071
vn -0.7071 0.0000 0.7071
vn 0.7071 0.0000 -0.7071
vn -0.7071 0.0000 -0.7071
vn 0.5774 -0.5774 0.5774
vn 0.5774 -0.5774 -0.5774
vn -0.5774 -0.5774 -0.5774
vn -0.5774 -0.5774 0.5774
vn -0.5774 0.5774 -0.5774
vn 0.5774 0.5774 -0.5774
vn 0.5774 0.5774 0.5774
vn -0.5774 0.5774 0.5774
# 20 vertex normals

vt 0.6231 0.0024 0.0000
vt 0.7470 0.1657 0.0000
vt 0.6234 0.3294 0.0000
vt 0.4994 0.1661 0.0000
vt 0.5031 0.8392 0.0000
vt 0.6248 0.6868 0.0000
vt 0.7467 0.8390 0.0000
vt 0.6250 0.9913 0.0000
vt 0.3739 0.3467 0.0000
vt 0.4957 0.5028 0.0000
vt 0.3739 0.6589 0.0000
vt 0.2522 0.5028 0.0000
vt 0.6160 0.3528 0.0000
vt 0.7147 0.4979 0.0000
vt 0.6160 0.6430 0.0000
vt 0.5174 0.4979 0.0000
vt 0.8700 0.3346 0.0000
vt 0.9779 0.4985 0.0000
vt 0.8700 0.6624 0.0000
vt 0.7622 0.4985 0.0000
vt 0.1243 0.3449 0.0000
vt 0.2510 0.4937 0.0000
vt 0.1243 0.6425 0.0000
vt -0.0024 0.4937 0.0000
vt 0.4995 0.3296 0.0000
vt 0.7472 0.3292 0.0000
vt 0.7469 0.0022 0.0000
vt 0.4993 0.0026 0.0000
vt 0.7468 0.9912 0.0000
vt 0.7466 0.6867 0.0000
vt 0.5030 0.6869 0.0000
vt 0.5032 0.9914 0.0000
vt 0.2522 0.6589 0.0000
vt 0.4957 0.6589 0.0000
vt 0.4957 0.3467 0.0000
vt 0.2522 0.3467 0.0000
vt 0.5174 0.6430 0.0000
vt 0.7147 0.6430 0.0000
vt 0.7147 0.3528 0.0000
vt 0.5174 0.3528 0.0000
vt 0.7622 0.6624 0.0000
vt 0.9779 0.6624 0.0000
vt 0.9779 0.3346 0.0000
vt 0.7622 0.3346 0.0000
vt -0.0024 0.6425 0.0000
vt 0.2510 0.6425 0.0000
vt 0.2510 0.3449 0.0000
vt -0.0024 0.3449 0.0000
# 48 texture coords

o Box001
g Box001
usemtl 01___Default
s 2
f 1/1/1 2/2/2 3/3/3 4/4/4 
s 4
f 5/5/5 6/6/6 7/7/7 8/8/8 
s 8
f 4/9/4 9/10/9 5/11/5 10/12/10 
s 16
f 3/13/3 11/14/11 6/15/6 9/16/9 
s 32
f 2/17/2 12/18/12 7/19/7 11/20/11 
s 64
f 1/21/1 10/22/10 8/23/8 12/24/12 
s 2
f 3/3/3 13/25/13 4/4/4 
f 2/2/2 14/26/14 3/3/3 
f 1/1/1 15/27/15 2/2/2 
f 4/4/4 16/28/16 1/1/1 
s 4
f 7/7/7 17/29/17 8/8/8 
f 6/6/6 18/30/18 7/7/7 
f 5/5/5 19/31/19 6/6/6 
f 8/8/8 20/32/20 5/5/5 
s 8
f 5/11/5 20/33/20 10/12/10 
f 9/10/9 19/34/19 5/11/5 
f 4/9/4 13/35/13 9/10/9 
f 10/12/10 16/36/16 4/9/4 
s 16
f 6/15/6 19/37/19 9/16/9 
f 11/14/11 18/38/18 6/15/6 
f 3/13/3 14/39/14 11/14/11 
f 9/16/9 13/40/13 3/13/3 
s 32
f 7/19/7 18/41/18 11/20/11 
f 12/18/12 17/42/17 7/19/7 
f 2/17/2 15/43/15 12/18/12 
f 11/20/11 14/44/14 2/17/2 
s 64
f 8/23/8 17/45/17 12/24/12 
f 10/22/10 20/46/20 8/23/8 
f 1/21/1 16/47/16 10/22/10 
f 12/24/12 15/48/15 1/21/1 
# 6 polygons - 24 triangles

